<svg xmlns="http://www.w3.org/2000/svg" xmlns:xlink="http://www.w3.org/1999/xlink" version="1.1" width="256" height="256" viewBox="0 0 256 256" xml:space="preserve">

<defs>
</defs>
<g style="stroke: none; stroke-width: 0; stroke-dasharray: none; stroke-linecap: butt; stroke-linejoin: miter; stroke-miterlimit: 10; fill: none; fill-rule: nonzero; opacity: 1;" transform="translate(1.4065934065934016 1.4065934065934016) scale(2.81 2.81)" >
	<path d="M 45 89 L 45 89 C 20.699 89 1 69.301 1 45 v 0 C 1 20.699 20.699 1 45 1 h 0 c 24.301 0 44 19.699 44 44 v 0 C 89 69.301 69.301 89 45 89 z" style="stroke: none; stroke-width: 1; stroke-dasharray: none; stroke-linecap: butt; stroke-linejoin: miter; stroke-miterlimit: 10; fill: rgb(255,218,3); fill-rule: nonzero; opacity: 1;" transform=" matrix(1 0 0 1 0 0) " stroke-linecap="round" />
	<path d="M 63.897 41.207 c -1.645 1.805 -3.957 2.858 -6.398 2.913 l -5.325 0.12 l -0.354 0.387 l -5.573 -5.334 l 0.512 -0.468 l 0.12 -5.325 c 0.055 -2.441 1.108 -4.753 2.913 -6.398 C 53.016 33.889 57.666 38.662 63.897 41.207 z" style="stroke: none; stroke-width: 1; stroke-dasharray: none; stroke-linecap: butt; stroke-linejoin: miter; stroke-miterlimit: 10; fill: rgb(249,249,249); fill-rule: nonzero; opacity: 1;" transform=" matrix(1 0 0 1 0 0) " stroke-linecap="round" />
	<path d="M 31.632 52.659 L 20.268 63.05 c -2.286 2.091 -2.366 5.667 -0.176 7.858 c 2.191 2.191 5.767 2.111 7.858 -0.176 l 9.67 -10.575" style="stroke: none; stroke-width: 1; stroke-dasharray: none; stroke-linecap: butt; stroke-linejoin: miter; stroke-miterlimit: 10; fill: rgb(249,249,249); fill-rule: nonzero; opacity: 1;" transform=" matrix(1 0 0 1 0 0) " stroke-linecap="round" />
	<path d="M 50.18 48.531 L 50.18 48.531 L 66.775 63.05 c 2.286 2.091 2.366 5.667 0.176 7.858 c -2.191 2.191 -5.767 2.111 -7.858 -0.176 L 45.012 54.638 c -0.237 -0.271 -0.654 -0.285 -0.908 -0.03 L 43.11 55.6 c -1.401 1.401 -3.739 1.14 -4.797 -0.536 L 19.37 25.05 c -0.654 -1.037 -0.503 -2.389 0.364 -3.256 l 0 0 c 1.025 -1.025 2.686 -1.025 3.71 0 L 50.18 48.531" style="stroke: none; stroke-width: 1; stroke-dasharray: none; stroke-linecap: butt; stroke-linejoin: miter; stroke-miterlimit: 10; fill: rgb(249,249,249); fill-rule: nonzero; opacity: 1;" transform=" matrix(1 0 0 1 0 0) " stroke-linecap="round" />
	<path d="M 45 90 C 20.187 90 0 69.813 0 45 C 0 20.187 20.187 0 45 0 c 24.813 0 45 20.187 45 45 C 90 69.813 69.813 90 45 90 z M 45 2 C 21.29 2 2 21.29 2 45 c 0 23.71 19.29 43 43 43 c 23.71 0 43 -19.29 43 -43 C 88 21.29 68.71 2 45 2 z" style="stroke: none; stroke-width: 1; stroke-dasharray: none; stroke-linecap: butt; stroke-linejoin: miter; stroke-miterlimit: 10; fill: rgb(0,0,0); fill-rule: nonzero; opacity: 1;" transform=" matrix(1 0 0 1 0 0) " stroke-linecap="round" />
	<path d="M 51.821 45.627 c -0.241 0 -0.482 -0.086 -0.674 -0.262 c -0.408 -0.372 -0.438 -1.005 -0.064 -1.413 l 0.354 -0.387 c 0.184 -0.202 0.442 -0.319 0.716 -0.325 l 5.325 -0.121 c 2.157 -0.049 4.228 -0.992 5.681 -2.586 l 9.547 -12.516 c 0.333 -0.439 0.963 -0.524 1.401 -0.188 c 0.439 0.335 0.523 0.962 0.188 1.401 l -9.603 12.583 c -1.875 2.064 -4.468 3.245 -7.17 3.306 l -4.897 0.111 l -0.065 0.071 C 52.362 45.518 52.092 45.627 51.821 45.627 z" style="stroke: none; stroke-width: 1; stroke-dasharray: none; stroke-linecap: butt; stroke-linejoin: miter; stroke-miterlimit: 10; fill: rgb(0,0,0); fill-rule: nonzero; opacity: 1;" transform=" matrix(1 0 0 1 0 0) " stroke-linecap="round" />
	<path d="M 23.932 73.5 c -1.718 0 -3.327 -0.666 -4.546 -1.886 c -1.254 -1.254 -1.924 -2.922 -1.884 -4.695 s 0.783 -3.41 2.092 -4.607 l 11.363 -10.391 c 0.408 -0.372 1.039 -0.345 1.413 0.063 c 0.373 0.407 0.345 1.04 -0.063 1.413 L 20.943 63.788 c -0.902 0.825 -1.415 1.953 -1.442 3.176 s 0.434 2.372 1.299 3.236 c 0.865 0.865 2.026 1.339 3.237 1.299 c 1.223 -0.027 2.35 -0.539 3.175 -1.442 l 9.671 -10.575 c 0.372 -0.408 1.004 -0.436 1.413 -0.063 c 0.408 0.373 0.436 1.006 0.063 1.413 l -9.67 10.575 c -1.197 1.31 -2.833 2.053 -4.607 2.093 C 24.032 73.5 23.982 73.5 23.932 73.5 z" style="stroke: none; stroke-width: 1; stroke-dasharray: none; stroke-linecap: butt; stroke-linejoin: miter; stroke-miterlimit: 10; fill: rgb(0,0,0); fill-rule: nonzero; opacity: 1;" transform=" matrix(1 0 0 1 0 0) " stroke-linecap="round" />
	<path d="M 46.248 40.293 c -0.271 0 -0.541 -0.109 -0.738 -0.325 c -0.373 -0.408 -0.345 -1.04 0.063 -1.413 l 0.197 -0.18 l 0.111 -4.897 c 0.062 -2.702 1.242 -5.295 3.239 -7.115 l 12.65 -9.658 c 0.438 -0.336 1.068 -0.25 1.401 0.188 c 0.335 0.439 0.251 1.066 -0.188 1.401 l -12.583 9.603 c -1.527 1.397 -2.471 3.468 -2.52 5.626 l -0.12 5.324 c -0.007 0.273 -0.124 0.531 -0.325 0.715 l -0.512 0.468 C 46.731 40.207 46.489 40.293 46.248 40.293 z" style="stroke: none; stroke-width: 1; stroke-dasharray: none; stroke-linecap: butt; stroke-linejoin: miter; stroke-miterlimit: 10; fill: rgb(0,0,0); fill-rule: nonzero; opacity: 1;" transform=" matrix(1 0 0 1 0 0) " stroke-linecap="round" />
	<path d="M 53.241 34.163 c -0.272 0 -0.544 -0.111 -0.742 -0.329 c -0.37 -0.41 -0.338 -1.042 0.071 -1.413 l 13.358 -12.079 c 0.409 -0.37 1.041 -0.339 1.413 0.071 c 0.37 0.41 0.338 1.042 -0.071 1.413 L 53.912 33.905 C 53.721 34.078 53.48 34.163 53.241 34.163 z" style="stroke: none; stroke-width: 1; stroke-dasharray: none; stroke-linecap: butt; stroke-linejoin: miter; stroke-miterlimit: 10; fill: rgb(0,0,0); fill-rule: nonzero; opacity: 1;" transform=" matrix(1 0 0 1 0 0) " stroke-linecap="round" />
	<path d="M 57.837 38.758 c -0.239 0 -0.479 -0.085 -0.671 -0.258 c -0.409 -0.371 -0.441 -1.003 -0.071 -1.413 l 12.079 -13.358 c 0.372 -0.409 1.003 -0.44 1.413 -0.071 c 0.409 0.371 0.441 1.003 0.071 1.413 L 58.579 38.429 C 58.381 38.647 58.109 38.758 57.837 38.758 z" style="stroke: none; stroke-width: 1; stroke-dasharray: none; stroke-linecap: butt; stroke-linejoin: miter; stroke-miterlimit: 10; fill: rgb(0,0,0); fill-rule: nonzero; opacity: 1;" transform=" matrix(1 0 0 1 0 0) " stroke-linecap="round" />
	<path d="M 63.11 73.5 c -0.049 0 -0.099 0 -0.148 -0.001 c -1.773 -0.04 -3.41 -0.783 -4.607 -2.093 L 44.525 55.6 l -0.708 0.708 c -0.883 0.884 -2.103 1.313 -3.345 1.172 c -1.242 -0.139 -2.337 -0.824 -3.004 -1.882 L 18.524 25.583 c -0.91 -1.442 -0.704 -3.291 0.502 -4.497 c 1.368 -1.368 3.756 -1.369 5.124 0 L 50.863 47.8 l 16.569 14.497 c 1.326 1.212 2.069 2.849 2.109 4.622 c 0.039 1.774 -0.63 3.441 -1.885 4.695 C 66.438 72.834 64.829 73.5 63.11 73.5 z M 44.544 53.425 c 0.018 0 0.036 0 0.054 0.001 c 0.447 0.015 0.873 0.217 1.167 0.554 l 14.081 16.094 c 0.811 0.887 1.938 1.398 3.161 1.426 c 1.222 0.036 2.371 -0.434 3.236 -1.299 c 0.865 -0.864 1.326 -2.014 1.299 -3.236 s -0.539 -2.351 -1.442 -3.176 L 49.521 49.283 c -0.017 -0.015 -0.033 -0.03 -0.049 -0.046 L 22.736 22.501 c -0.613 -0.613 -1.683 -0.613 -2.296 0 c -0.541 0.54 -0.633 1.369 -0.225 2.015 L 39.159 54.53 c 0.341 0.541 0.9 0.891 1.535 0.962 c 0.631 0.069 1.257 -0.147 1.709 -0.599 l 0.993 -0.993 C 43.7 53.597 44.116 53.425 44.544 53.425 z" style="stroke: none; stroke-width: 1; stroke-dasharray: none; stroke-linecap: butt; stroke-linejoin: miter; stroke-miterlimit: 10; fill: rgb(0,0,0); fill-rule: nonzero; opacity: 1;" transform=" matrix(1 0 0 1 0 0) " stroke-linecap="round" />
</g>
</svg>