<svg xmlns="http://www.w3.org/2000/svg" viewBox="0 0 32 40" x="0px" y="0px"><title>essential, ui, others</title><g data-name="Layer 51"><path d="M6,12a4,4,0,1,0,4,4A4,4,0,0,0,6,12Zm0,6a2,2,0,1,1,2-2A2,2,0,0,1,6,18Zm10-6a4,4,0,1,0,4,4A4,4,0,0,0,16,12Zm0,6a2,2,0,1,1,2-2A2,2,0,0,1,16,18Zm10-6a4,4,0,1,0,4,4A4,4,0,0,0,26,12Zm0,6a2,2,0,1,1,2-2A2,2,0,0,1,26,18Z"/></g><text x="0" y="47" fill="#000000" font-size="5px" font-weight="bold" font-family="'Helvetica Neue', Helvetica, Arial-Unicode, Arial, Sans-serif">Created by Cazier Visual</text><text x="0" y="52" fill="#000000" font-size="5px" font-weight="bold" font-family="'Helvetica Neue', Helvetica, Arial-Unicode, Arial, Sans-serif">from the Noun Project</text></svg>