<svg id="Layer_1" data-name="Layer 1" xmlns="http://www.w3.org/2000/svg" viewBox="0 0 109.92 122.88"><defs><style>.cls-1{fill-rule:evenodd;}</style></defs><title>electricity-bill</title><path class="cls-1" d="M81.74,44.67H56.32V39.76H81.74v4.91ZM42.29,7.26ZM28.44,36.13a4.56,4.56,0,0,1-1.68,1.62,4.34,4.34,0,0,1-1.91.55,4,4,0,0,1-1.94-.41A4.31,4.31,0,0,1,21.77,37l6.67-.88Zm.69-3.71V33a6.17,6.17,0,0,1,0,.86l-.14.62-8.08,1.07-.14-.33-.29-1.29v-.38l8.64-1.13Zm1-19.54a9.8,9.8,0,0,1,2.21,1.91,8.74,8.74,0,0,1,1.54,2.56A10.73,10.73,0,0,1,34.37,19a8.81,8.81,0,0,1,.19,1.81,9.57,9.57,0,0,1-.19,2,10.71,10.71,0,0,1-.62,2,20,20,0,0,1-2.51,4l-.1.12c-.43.58-.86,1.15-1.22,1.72a1.62,1.62,0,0,1-1.45.72l-7.22.94a1.58,1.58,0,0,1-1.72-1.1,10.78,10.78,0,0,0-.64-1.54l0-.06a6.19,6.19,0,0,0-.7-1.07c-.37-.44-.75-.89-1.12-1.42L17,27a10.85,10.85,0,0,1-1-1.82A11.49,11.49,0,0,1,15.21,23,9.79,9.79,0,0,1,15,20.66a10,10,0,0,1,.36-2.39,11,11,0,0,1,1-2.35l.07-.13a9.46,9.46,0,0,1,2-2.33l.09-.07A9,9,0,0,1,21,11.91a9.64,9.64,0,0,1,2.28-.57,9.48,9.48,0,0,1,2.38,0,10.31,10.31,0,0,1,2.28.5,10.7,10.7,0,0,1,2.11,1l.1.07Zm-4,7,1.88,0a.5.5,0,0,1,.48.5.48.48,0,0,1-.09.27l-4.59,7.54a.49.49,0,0,1-.9-.37l.74-4.66H21.48a.48.48,0,0,1-.48-.49.43.43,0,0,1,.07-.25l4.51-7.53a.5.5,0,0,1,.68-.17.51.51,0,0,1,.23.5l-.31,4.63ZM24.78,3.67A21.11,21.11,0,1,1,3.67,24.78,21.11,21.11,0,0,1,24.78,3.67ZM42.3,42.29Zm-35,0Zm0-35A24.75,24.75,0,1,1,0,24.78,24.72,24.72,0,0,1,7.27,7.26ZM94.8,59.91V20.06H56.13A30.5,30.5,0,0,0,55,15.15H97.26a2.45,2.45,0,0,1,2.45,2.45V63.88l-2.39-2.39a6.54,6.54,0,0,0-2.52-1.58Zm-81-5.38v44l1.75-1a2.46,2.46,0,0,1,3,.41l7.59,7.22L34.05,98a2.44,2.44,0,0,1,3.3,0L45,105.23l7.35-7.13a2.51,2.51,0,0,1,1.32-.66,6.53,6.53,0,0,0,1.83,4.76,6,6,0,0,0-.81,1.44l-.54-.46-7.42,7.19a2.46,2.46,0,0,1-3.39,0l-7.67-7.22-7.82,7a2.44,2.44,0,0,1-3.4,0l-8-7.57-3.73,2.21a2.46,2.46,0,0,1-3.83-2V52.21a32,32,0,0,0,4.91,2.32Zm96.13,36.82L77.43,122.88,60.71,106.14l1.89-2.45,12.25,12.17L75,116a3,3,0,0,0,4.2,0l1.06-1.08,0,0,5-5.17L107.4,88.83l2.52,2.52Zm-.53-8.49L76.9,114.39,60.18,97.64,92.67,66.11l16.72,16.75ZM89.39,89a5.38,5.38,0,1,1-6.75-3.49A5.38,5.38,0,0,1,89.39,89Zm12.07-3.33-21.7,20.74a3.49,3.49,0,0,0-4.94,0L68.2,99.82a3.48,3.48,0,0,0,0-4.94L89.9,74.12a3.5,3.5,0,0,0,4.95,0l6.61,6.62a3.51,3.51,0,0,0,0,5Zm-29.7-8.42H26.85V72.36h50l-5,4.91Zm8-16.3H26.85V56.06H79.74V61Z"/></svg>